<svg width="200" height="200" viewBox="0 0 200 200" fill="none" xmlns="http://www.w3.org/2000/svg">
  <defs>
    <linearGradient id="bg" x1="20" y1="0" x2="180" y2="200" gradientUnits="userSpaceOnUse">
      <stop stop-color="#B5163A"/>
      <stop offset="0.55" stop-color="#8B1028"/>
      <stop offset="1" stop-color="#5A0718"/>
    </linearGradient>
    <linearGradient id="ice" x1="0" y1="0" x2="0" y2="90" gradientUnits="userSpaceOnUse">
      <stop stop-color="#FFFFFF" stop-opacity="0.95"/>
      <stop offset="1" stop-color="#BFEFFF" stop-opacity="0.18"/>
    </linearGradient>
    <filter id="glow" x="-50%" y="-50%" width="200%" height="200%">
      <feGaussianBlur stdDeviation="2.5" result="blur"/>
      <feMerge><feMergeNode in="blur"/><feMergeNode in="SourceGraphic"/></feMerge>
    </filter>
  </defs>
  <rect width="200" height="200" rx="44" fill="url(#bg)"/>
  <path d="M0 82C38 52 66 64 95 78C126 93 156 78 200 52V0H0V82Z" fill="url(#ice)" opacity="0.28"/>
  <g fill="#E8FBFF" opacity="0.95" filter="url(#glow)">
    <circle cx="32" cy="38" r="2.5"/><circle cx="168" cy="32" r="2"/><circle cx="146" cy="62" r="1.8"/><circle cx="52" cy="70" r="1.7"/>
  </g>
  <g stroke="#E8FBFF" stroke-width="3" stroke-linecap="round" opacity="0.9">
    <path d="M29 115V151M11 133H47M16 120L42 146M42 120L16 146"/>
    <path d="M171 113V145M155 129H187M159 117L183 141M183 117L159 141"/>
  </g>
  <text x="100" y="112" text-anchor="middle" dominant-baseline="middle" fill="white" font-family="'Helvetica Neue', Arial, sans-serif" font-size="72" font-weight="900" letter-spacing="-5">SS</text>
  <text x="100" y="151" text-anchor="middle" fill="#E8FBFF" font-family="'Helvetica Neue', Arial, sans-serif" font-size="10" font-weight="700" letter-spacing="3">СЕВЕРНОЕ СИЯНИЕ</text>
  <path d="M70 165H130" stroke="#E8FBFF" stroke-width="2" stroke-linecap="round" opacity="0.55"/>
</svg>
